<mxfile host="app.diagrams.net" modified="2024-04-07T10:51:45.357Z" agent="Mozilla/5.0 (Windows NT 10.0; Win64; x64) AppleWebKit/537.36 (KHTML, like Gecko) Chrome/123.0.0.0 Safari/537.36 Edg/123.0.0.0" etag="V0LmXf71TXNn30caxtvb" version="24.2.2" type="device">
  <diagram name="StrÃ¡nka-1" id="my_ql4EVGXeYwR-Lx28C">
    <mxGraphModel dx="1426" dy="1985" grid="1" gridSize="10" guides="1" tooltips="1" connect="1" arrows="1" fold="1" page="1" pageScale="1" pageWidth="700" pageHeight="300" math="0" shadow="0">
      <root>
        <mxCell id="0" />
        <mxCell id="1" parent="0" />
        <mxCell id="Lqna8Om0uiBDR9MPVSk--1" style="edgeStyle=orthogonalEdgeStyle;rounded=0;orthogonalLoop=1;jettySize=auto;html=1;entryX=0;entryY=0.5;entryDx=0;entryDy=0;" edge="1" parent="1" source="Lqna8Om0uiBDR9MPVSk--2" target="Lqna8Om0uiBDR9MPVSk--6">
          <mxGeometry relative="1" as="geometry" />
        </mxCell>
        <mxCell id="Lqna8Om0uiBDR9MPVSk--2" value="/robot_transmitter_control_receiver" style="rounded=0;whiteSpace=wrap;html=1;" vertex="1" parent="1">
          <mxGeometry x="250" y="-1085" width="200" height="60" as="geometry" />
        </mxCell>
        <mxCell id="Lqna8Om0uiBDR9MPVSk--16" style="edgeStyle=orthogonalEdgeStyle;rounded=0;orthogonalLoop=1;jettySize=auto;html=1;entryX=1;entryY=0.5;entryDx=0;entryDy=0;" edge="1" parent="1" source="Lqna8Om0uiBDR9MPVSk--3" target="Lqna8Om0uiBDR9MPVSk--15">
          <mxGeometry relative="1" as="geometry" />
        </mxCell>
        <mxCell id="Lqna8Om0uiBDR9MPVSk--3" value="/control_transmitter_robot_receiver" style="rounded=0;whiteSpace=wrap;html=1;" vertex="1" parent="1">
          <mxGeometry x="250" y="-995" width="200" height="60" as="geometry" />
        </mxCell>
        <mxCell id="Lqna8Om0uiBDR9MPVSk--4" style="edgeStyle=orthogonalEdgeStyle;rounded=0;orthogonalLoop=1;jettySize=auto;html=1;entryX=1;entryY=0.5;entryDx=0;entryDy=0;" edge="1" parent="1" source="Lqna8Om0uiBDR9MPVSk--5" target="Lqna8Om0uiBDR9MPVSk--3">
          <mxGeometry relative="1" as="geometry" />
        </mxCell>
        <mxCell id="Lqna8Om0uiBDR9MPVSk--5" value="sound_transmitter_node" style="ellipse;whiteSpace=wrap;html=1;" vertex="1" parent="1">
          <mxGeometry x="520" y="-1005" width="140" height="80" as="geometry" />
        </mxCell>
        <mxCell id="Lqna8Om0uiBDR9MPVSk--6" value="sound_receiver_node" style="ellipse;whiteSpace=wrap;html=1;" vertex="1" parent="1">
          <mxGeometry x="520" y="-1095" width="140" height="80" as="geometry" />
        </mxCell>
        <mxCell id="Lqna8Om0uiBDR9MPVSk--19" style="edgeStyle=orthogonalEdgeStyle;rounded=0;orthogonalLoop=1;jettySize=auto;html=1;entryX=1;entryY=0.5;entryDx=0;entryDy=0;" edge="1" parent="1" source="Lqna8Om0uiBDR9MPVSk--9" target="Lqna8Om0uiBDR9MPVSk--6">
          <mxGeometry relative="1" as="geometry">
            <Array as="points">
              <mxPoint x="690" y="-1145" />
              <mxPoint x="690" y="-1055" />
            </Array>
          </mxGeometry>
        </mxCell>
        <mxCell id="Lqna8Om0uiBDR9MPVSk--20" style="edgeStyle=orthogonalEdgeStyle;rounded=0;orthogonalLoop=1;jettySize=auto;html=1;entryX=1;entryY=0.5;entryDx=0;entryDy=0;" edge="1" parent="1" source="Lqna8Om0uiBDR9MPVSk--9" target="Lqna8Om0uiBDR9MPVSk--5">
          <mxGeometry relative="1" as="geometry">
            <Array as="points">
              <mxPoint x="690" y="-1145" />
              <mxPoint x="690" y="-965" />
            </Array>
          </mxGeometry>
        </mxCell>
        <mxCell id="Lqna8Om0uiBDR9MPVSk--21" style="edgeStyle=orthogonalEdgeStyle;rounded=0;orthogonalLoop=1;jettySize=auto;html=1;entryX=0;entryY=0.5;entryDx=0;entryDy=0;" edge="1" parent="1" source="Lqna8Om0uiBDR9MPVSk--9" target="Lqna8Om0uiBDR9MPVSk--15">
          <mxGeometry relative="1" as="geometry">
            <Array as="points">
              <mxPoint x="10" y="-1145" />
              <mxPoint x="10" y="-965" />
            </Array>
          </mxGeometry>
        </mxCell>
        <mxCell id="Lqna8Om0uiBDR9MPVSk--22" style="edgeStyle=orthogonalEdgeStyle;rounded=0;orthogonalLoop=1;jettySize=auto;html=1;entryX=0;entryY=0.5;entryDx=0;entryDy=0;" edge="1" parent="1" source="Lqna8Om0uiBDR9MPVSk--9" target="Lqna8Om0uiBDR9MPVSk--14">
          <mxGeometry relative="1" as="geometry">
            <Array as="points">
              <mxPoint x="10" y="-1145" />
              <mxPoint x="10" y="-1055" />
            </Array>
          </mxGeometry>
        </mxCell>
        <mxCell id="Lqna8Om0uiBDR9MPVSk--9" value="/audio_toggle_topics" style="rounded=0;whiteSpace=wrap;html=1;" vertex="1" parent="1">
          <mxGeometry x="290" y="-1175" width="120" height="60" as="geometry" />
        </mxCell>
        <mxCell id="Lqna8Om0uiBDR9MPVSk--17" style="edgeStyle=orthogonalEdgeStyle;rounded=0;orthogonalLoop=1;jettySize=auto;html=1;entryX=0;entryY=0.5;entryDx=0;entryDy=0;" edge="1" parent="1" source="Lqna8Om0uiBDR9MPVSk--14" target="Lqna8Om0uiBDR9MPVSk--2">
          <mxGeometry relative="1" as="geometry" />
        </mxCell>
        <mxCell id="Lqna8Om0uiBDR9MPVSk--14" value="sound_transmitter_node" style="ellipse;whiteSpace=wrap;html=1;" vertex="1" parent="1">
          <mxGeometry x="40" y="-1095" width="140" height="80" as="geometry" />
        </mxCell>
        <mxCell id="Lqna8Om0uiBDR9MPVSk--15" value="sound_receiver_node" style="ellipse;whiteSpace=wrap;html=1;" vertex="1" parent="1">
          <mxGeometry x="40" y="-1005" width="140" height="80" as="geometry" />
        </mxCell>
        <mxCell id="Lqna8Om0uiBDR9MPVSk--23" value="Robot Side" style="text;html=1;align=center;verticalAlign=middle;whiteSpace=wrap;rounded=0;" vertex="1" parent="1">
          <mxGeometry x="70" y="-1190" width="80" height="30" as="geometry" />
        </mxCell>
        <mxCell id="Lqna8Om0uiBDR9MPVSk--24" value="Controller Side" style="text;html=1;align=center;verticalAlign=middle;whiteSpace=wrap;rounded=0;" vertex="1" parent="1">
          <mxGeometry x="540" y="-1190" width="100" height="30" as="geometry" />
        </mxCell>
      </root>
    </mxGraphModel>
  </diagram>
</mxfile>
